<svg xmlns="http://www.w3.org/2000/svg" viewBox="0 0 763.96 214.06"><g id="Layer_2" data-name="Layer 2"><g id="Layer_1-2" data-name="Layer 1"><path d="M35.71,114.53H0V40A20.44,20.44,0,0,1,20.42,19.57H33.71v15H20.42A5.42,5.42,0,0,0,15,40V99.53H35.71Zm41.77-15H47.71v15H77.48a32.48,32.48,0,0,1,0,65v15a47.48,47.48,0,0,0,0-95Zm-49.07,71,9,9H20.42A5.42,5.42,0,0,1,15,174.07V127H0v47a20.44,20.44,0,0,0,20.42,20.42H37.37l-9,9L39,214.06,66.09,187,39,159.92Zm54.37-127-9-9h3.66a32.48,32.48,0,0,1,23,55.42l10.62,10.59a47.48,47.48,0,0,0-33.61-81H73.82l9-9L72.18,0,45.1,27.07,72.18,54.14Z"/><path d="M212.61,50.69A41.88,41.88,0,0,1,227.06,53a31.51,31.51,0,0,1,10.69,6.39,27.23,27.23,0,0,1,6.7,9.65,31.88,31.88,0,0,1,2.31,12.29,25.06,25.06,0,0,1-4.7,15.4,25.94,25.94,0,0,1-12.21,9,27.62,27.62,0,0,1,8.62,3.91,26.75,26.75,0,0,1,6.46,6.22,27,27,0,0,1,4,8,31,31,0,0,1,1.36,9.18,29.76,29.76,0,0,1-2.56,12.36,28.29,28.29,0,0,1-7.18,9.74,34.14,34.14,0,0,1-11,6.38,41.27,41.27,0,0,1-14.2,2.32H175.75V50.69Zm-1.75,49.47q9.57,0,14.84-5a17.16,17.16,0,0,0,5.27-13q0-8.14-5.51-12.93t-15.24-4.79H191.39v35.75Zm2.23,50q9.58,0,15.4-4.86t5.83-13.17a18.22,18.22,0,0,0-5.11-13.33q-5.11-5.18-15.48-5.18H191.39v36.54Z"/><path d="M259.71,143.25a23,23,0,0,1,1.75-9.18,20.21,20.21,0,0,1,4.87-6.94,24.63,24.63,0,0,1,7.42-4.63A42.18,42.18,0,0,1,283,120l20.74-3q3.51-.48,4.71-2.08a5.92,5.92,0,0,0,1.2-3.67,13.48,13.48,0,0,0-3.91-9.65q-3.92-4.06-12.69-4.07-8,0-12.29,4.39a18.42,18.42,0,0,0-5.1,11.09l-14.37-3.35a26.55,26.55,0,0,1,3.27-10.06,27.12,27.12,0,0,1,6.79-7.9,31.39,31.39,0,0,1,9.65-5.1,36.67,36.67,0,0,1,11.73-1.84A41.3,41.3,0,0,1,307.42,87a27.86,27.86,0,0,1,9.9,6.14,23.07,23.07,0,0,1,5.58,8.94,32.65,32.65,0,0,1,1.76,10.69v38.46a79.36,79.36,0,0,0,.32,8.14,41.19,41.19,0,0,0,.64,4.47H310.93a35.41,35.41,0,0,1-.55-3.83q-.24-2.4-.24-6.55a27.91,27.91,0,0,1-3.36,4.31,25.15,25.15,0,0,1-5.1,4.15,27.69,27.69,0,0,1-7.1,3.11,32.51,32.51,0,0,1-9.18,1.2,28,28,0,0,1-10.61-1.91,26.31,26.31,0,0,1-8.06-5,21.9,21.9,0,0,1-5.19-7.26A21.52,21.52,0,0,1,259.71,143.25Zm27.76,10.37a31,31,0,0,0,8.7-1.19,18.15,18.15,0,0,0,7-3.83,18.35,18.35,0,0,0,4.71-7A28.56,28.56,0,0,0,309.66,131v-3.51L286.2,131a15.86,15.86,0,0,0-8,3.59q-3.2,2.8-3.19,7.9a10.76,10.76,0,0,0,3.35,7.74Q281.73,153.63,287.47,153.62Z"/><path d="M383.42,102.24a46.23,46.23,0,0,0-6.54-.48q-9.42,0-15.25,5.5t-5.82,18.12v38.46h-15V87.08h14.68v13.4a25,25,0,0,1,4.87-7.26,26.33,26.33,0,0,1,5.82-4.47,21.31,21.31,0,0,1,6.23-2.31,30.57,30.57,0,0,1,6.06-.64,24.54,24.54,0,0,1,2.95.16,17.49,17.49,0,0,1,2,.32Z"/><path d="M417.66,87.08h16.6v13.56h-16.6v39.9q0,5.27,2.4,7.9t8.3,2.63c.95,0,2,0,3.19-.16a11.81,11.81,0,0,0,2.71-.48V163.2c-.64.21-1.86.51-3.67.88a33.2,33.2,0,0,1-6.54.55q-9.9,0-15.64-5.66t-5.75-16.2V100.64H388V87.08h4.15q6.22,0,9-3.36a12.75,12.75,0,0,0,2.79-8.45V62.82h13.72Z"/><path d="M440.72,58a10.54,10.54,0,0,1,3.11-7.74,10.34,10.34,0,0,1,7.58-3.11A10.64,10.64,0,0,1,462.27,58a10.29,10.29,0,0,1-3.12,7.58,10.47,10.47,0,0,1-7.74,3.11A10.62,10.62,0,0,1,440.72,58Zm3.35,105.81V87.08h14.84v76.76Z"/><path d="M490.82,163.84h-15V87.08H490.5v11A24.25,24.25,0,0,1,501,87.87a30.2,30.2,0,0,1,13.09-3,29.16,29.16,0,0,1,12,2.32,23.73,23.73,0,0,1,8.62,6.38,26.65,26.65,0,0,1,5.11,9.65,41.77,41.77,0,0,1,1.67,12v48.68h-15V117.72a30.6,30.6,0,0,0-.88-7.5,15.43,15.43,0,0,0-3-6.15,14.84,14.84,0,0,0-5.58-4.15,20.72,20.72,0,0,0-8.38-1.51,17.22,17.22,0,0,0-7.82,1.67,16,16,0,0,0-5.59,4.55,19.89,19.89,0,0,0-3.35,6.7,29.16,29.16,0,0,0-1.11,8.14Z"/><path d="M626.24,142A34,34,0,0,1,614,159.13a36.41,36.41,0,0,1-10,5.19,37.89,37.89,0,0,1-12.29,1.91,40.33,40.33,0,0,1-14.68-2.71,35.77,35.77,0,0,1-12.37-8,37.72,37.72,0,0,1-8.46-12.93,46,46,0,0,1-3.11-17.39,43.32,43.32,0,0,1,3-16.52,41.17,41.17,0,0,1,8.06-12.77A35.75,35.75,0,0,1,576,87.63a34.24,34.24,0,0,1,13.88-2.95,40,40,0,0,1,15.72,2.95,31.66,31.66,0,0,1,11.57,8.22,36.3,36.3,0,0,1,7.1,12.69,51.47,51.47,0,0,1,2.48,16.36c0,1,0,1.86-.08,2.71a19.2,19.2,0,0,1-.24,2.08H568.63a26.83,26.83,0,0,0,1.91,9.41,22.26,22.26,0,0,0,4.87,7.42,21.32,21.32,0,0,0,7.34,4.79,24.22,24.22,0,0,0,9,1.68q9.4,0,14.36-4.47a25.77,25.77,0,0,0,7.18-11Zm-15.16-24.41a21.06,21.06,0,0,0-5.59-14q-5.26-5.66-15.48-5.66a20.86,20.86,0,0,0-8.54,1.67,19.81,19.81,0,0,0-6.38,4.47,23,23,0,0,0-4.23,6.31,19.17,19.17,0,0,0-1.75,7.18Z"/><path d="M681.85,102.24a46,46,0,0,0-6.54-.48q-9.42,0-15.24,5.5t-5.82,18.12v38.46h-15V87.08h14.68v13.4a25,25,0,0,1,4.86-7.26,26.38,26.38,0,0,1,5.83-4.47,21.25,21.25,0,0,1,6.22-2.31,30.66,30.66,0,0,1,6.07-.64,24.65,24.65,0,0,1,3,.16,17.23,17.23,0,0,1,2,.32Z"/><path d="M724.7,84.68a39.39,39.39,0,0,1,15.8,3.11A38.63,38.63,0,0,1,753,96.33a37.91,37.91,0,0,1,8.14,12.85,44.63,44.63,0,0,1,2.87,16.2,45.17,45.17,0,0,1-2.87,16.27A37.68,37.68,0,0,1,753,154.58a38.47,38.47,0,0,1-12.45,8.54,41.69,41.69,0,0,1-31.6,0,38.54,38.54,0,0,1-12.44-8.54,37.39,37.39,0,0,1-8.14-12.93,45,45,0,0,1-2.88-16.27,44.42,44.42,0,0,1,2.88-16.2,37.61,37.61,0,0,1,8.14-12.85,38.7,38.7,0,0,1,12.44-8.54A39.42,39.42,0,0,1,724.7,84.68Zm0,68.15a23.9,23.9,0,0,0,9.1-1.76,21.92,21.92,0,0,0,7.66-5.27,25,25,0,0,0,5.26-8.61,33.51,33.51,0,0,0,1.92-11.81,32.78,32.78,0,0,0-1.92-11.73,25.13,25.13,0,0,0-5.26-8.54,22.06,22.06,0,0,0-7.66-5.27,24.51,24.51,0,0,0-18.19,0,21.88,21.88,0,0,0-7.66,5.27,25.15,25.15,0,0,0-5.27,8.54,32.78,32.78,0,0,0-1.92,11.73,33.51,33.51,0,0,0,1.92,11.81A25,25,0,0,0,708,145.8a21.74,21.74,0,0,0,7.66,5.27A23.85,23.85,0,0,0,724.7,152.83Z"/></g></g></svg>